<svg xmlns="http://www.w3.org/2000/svg" viewBox="0 0 24 24" width="24" height="24">
  <!-- Diff file outline -->
  <path d="M4 3h12l4 4v14a1 1 0 0 1-1 1H4a1 1 0 0 1-1-1V4a1 1 0 0 1 1-1z" fill="none" stroke="currentColor" stroke-width="1.5"/>
  <path d="M16 3v4h4" fill="none" stroke="currentColor" stroke-width="1.5"/>

  <!-- Diff indicators -->
  <line x1="6" y1="10" x2="12" y2="10" stroke="#e53e3e" stroke-width="2"/>
  <line x1="6" y1="12" x2="10" y2="12" stroke="#e53e3e" stroke-width="2"/>

  <line x1="6" y1="14" x2="14" y2="14" stroke="#38a169" stroke-width="2"/>
  <line x1="6" y1="16" x2="11" y2="16" stroke="#38a169" stroke-width="2"/>
  <line x1="6" y1="18" x2="13" y2="18" stroke="#38a169" stroke-width="2"/>

  <!-- Comment bubble -->
  <circle cx="18" cy="18" r="3" fill="#4299e1"/>
  <circle cx="17" cy="17.5" r="0.3" fill="white"/>
  <circle cx="18" cy="17.5" r="0.3" fill="white"/>
  <circle cx="19" cy="17.5" r="0.3" fill="white"/>
</svg>
